<?xml version="1.0" encoding="UTF-8" standalone="no"?>
<!DOCTYPE svg PUBLIC "-//W3C//DTD SVG 1.1//EN" "http://www.w3.org/Graphics/SVG/1.1/DTD/svg11.dtd">
<svg width="100%" height="100%" viewBox="0 0 100 18" version="1.1" xmlns="http://www.w3.org/2000/svg" xmlns:xlink="http://www.w3.org/1999/xlink" xml:space="preserve" xmlns:serif="http://www.serif.com/" style="fill-rule:evenodd;clip-rule:evenodd;stroke-linejoin:round;stroke-miterlimit:2;">
    <g transform="matrix(1,0,0,1,-6137.87,0)">
        <g id="Artboard5" transform="matrix(0.718317,0,0,0.523458,1715.24,0)">
            <rect x="6156.93" y="0" width="138.507" height="32.965" style="fill:none;"/>
            <g transform="matrix(1.48254,0,0,2.03442,6157.93,1.34715)">
                <path d="M16.77,1.26C15.468,0.662 14.093,0.239 12.68,0C12.487,0.343 12.313,0.697 12.16,1.06C10.658,0.84 9.132,0.84 7.63,1.06C7.49,0.73 7.28,0.31 7.11,0C5.69,0.234 4.307,0.658 3,1.26C0.697,4.524 -0.341,8.517 0.08,12.49C1.593,13.602 3.284,14.451 5.08,15C5.488,14.457 5.846,13.878 6.15,13.27C5.566,13.053 5.004,12.782 4.47,12.46L4.88,12.14C8.043,13.635 11.717,13.635 14.88,12.14C15.02,12.25 15.15,12.36 15.3,12.46C14.758,12.78 14.19,13.051 13.6,13.27C13.914,13.879 14.282,14.458 14.7,15C16.496,14.451 18.187,13.602 19.7,12.49C20.117,8.516 19.075,4.523 16.77,1.26ZM6.61,10.26C5.615,10.204 4.827,9.37 4.827,8.373C4.827,8.335 4.828,8.298 4.83,8.26C4.827,8.219 4.826,8.178 4.826,8.138C4.826,7.142 5.616,6.311 6.61,6.26C7.603,6.305 8.395,7.134 8.395,8.128C8.395,8.172 8.393,8.216 8.39,8.26C8.43,9.283 7.632,10.161 6.61,10.22L6.61,10.26ZM13.18,10.26C12.145,10.196 11.343,9.296 11.4,8.26C11.398,8.222 11.397,8.185 11.397,8.147C11.397,7.15 12.185,6.316 13.18,6.26C14.173,6.305 14.965,7.134 14.965,8.128C14.965,8.172 14.963,8.216 14.96,8.26C15.005,9.284 14.204,10.166 13.18,10.22L13.18,10.26Z" style="fill:white;fill-rule:nonzero;"/>
            </g>
            <g transform="matrix(1.85552,0,0,2.54624,6145.29,-1.4916)">
                <path d="M26.62,3.14L30.87,3.14C31.761,3.115 32.647,3.278 33.47,3.62C34.126,3.911 34.68,4.392 35.06,5C35.422,5.603 35.603,6.297 35.58,7C35.597,7.706 35.406,8.402 35.03,9C34.625,9.62 34.043,10.104 33.36,10.39C32.473,10.755 31.519,10.929 30.56,10.9L26.62,10.9L26.62,3.14ZM30.52,8.83C31.097,8.871 31.668,8.684 32.11,8.31C32.489,7.942 32.69,7.427 32.66,6.9C32.685,6.412 32.508,5.934 32.17,5.58C31.76,5.215 31.217,5.034 30.67,5.08L29.34,5.08L29.34,8.83L30.52,8.83Z" style="fill:white;fill-rule:nonzero;"/>
            </g>
            <g transform="matrix(1.85552,0,0,2.54624,6145.29,-1.4916)">
                <path d="M42.21,10.76C41.649,10.619 41.113,10.393 40.62,10.09L40.62,8.28C41.047,8.609 41.532,8.853 42.05,9C42.615,9.166 43.201,9.254 43.79,9.26C43.992,9.273 44.194,9.238 44.38,9.16C44.52,9.09 44.58,9.01 44.58,8.91C44.583,8.81 44.547,8.713 44.48,8.64C44.353,8.547 44.206,8.485 44.05,8.46L42.74,8.16C42.155,8.068 41.605,7.819 41.15,7.44C40.826,7.119 40.652,6.676 40.67,6.22C40.666,5.814 40.816,5.42 41.09,5.12C41.41,4.782 41.814,4.533 42.26,4.4C42.839,4.218 43.443,4.13 44.05,4.14C44.616,4.136 45.181,4.204 45.73,4.34C46.172,4.444 46.597,4.613 46.99,4.84L46.99,6.52C46.62,6.297 46.224,6.123 45.81,6C45.359,5.883 44.895,5.826 44.43,5.83C43.75,5.83 43.43,5.94 43.43,6.17C43.429,6.278 43.492,6.376 43.59,6.42C43.777,6.497 43.971,6.554 44.17,6.59L45.26,6.78C45.839,6.851 46.388,7.075 46.85,7.43C47.216,7.788 47.407,8.289 47.37,8.8C47.382,9.438 47.054,10.037 46.51,10.37C45.756,10.828 44.881,11.048 44,11C43.396,10.994 42.794,10.914 42.21,10.76Z" style="fill:white;fill-rule:nonzero;"/>
            </g>
            <g transform="matrix(1.85552,0,0,2.54624,6145.29,-1.4916)">
                <path d="M50.05,10.53C49.472,10.259 48.983,9.829 48.64,9.29C48.325,8.754 48.163,8.142 48.17,7.52C48.158,6.901 48.329,6.293 48.66,5.77C49.013,5.234 49.513,4.81 50.1,4.55C50.813,4.242 51.584,4.092 52.36,4.11C53.314,4.076 54.258,4.315 55.08,4.8L55.08,6.8C54.804,6.621 54.504,6.479 54.19,6.38C53.841,6.267 53.477,6.21 53.11,6.21C52.556,6.184 52.006,6.312 51.52,6.58C51.174,6.78 50.96,7.15 50.96,7.55C50.96,7.95 51.174,8.32 51.52,8.52C52.012,8.799 52.576,8.927 53.14,8.89C53.502,8.89 53.862,8.84 54.21,8.74C54.527,8.646 54.833,8.515 55.12,8.35L55.12,10.28C54.277,10.771 53.315,11.02 52.34,11C51.551,11.018 50.768,10.858 50.05,10.53Z" style="fill:white;fill-rule:nonzero;"/>
            </g>
            <g transform="matrix(1.85552,0,0,2.54624,6145.29,-1.4916)">
                <path d="M57.93,10.53C57.341,10.259 56.841,9.825 56.49,9.28C56.162,8.745 55.992,8.128 56,7.5C55.992,6.88 56.166,6.272 56.5,5.75C56.853,5.222 57.349,4.806 57.93,4.55C59.362,3.964 60.968,3.964 62.4,4.55C62.983,4.803 63.48,5.22 63.83,5.75C64.159,6.274 64.329,6.882 64.32,7.5C64.324,8.127 64.154,8.743 63.83,9.28C63.48,9.823 62.984,10.256 62.4,10.53C60.977,11.143 59.363,11.143 57.94,10.53L57.93,10.53ZM61.24,8.6C61.514,8.318 61.659,7.933 61.64,7.54C61.648,7.166 61.503,6.805 61.24,6.54C60.944,6.277 60.556,6.14 60.16,6.16C59.758,6.139 59.363,6.275 59.06,6.54C58.801,6.808 58.657,7.167 58.66,7.54C58.646,7.932 58.79,8.314 59.06,8.6C59.359,8.872 59.756,9.013 60.16,8.99C60.558,9.011 60.947,8.87 61.24,8.6Z" style="fill:white;fill-rule:nonzero;"/>
            </g>
            <g transform="matrix(1.85552,0,0,2.54624,6145.29,-1.4916)">
                <path d="M71,4.51L71,6.87C70.673,6.68 70.298,6.586 69.92,6.6C69.419,6.567 68.928,6.757 68.58,7.12C68.232,7.593 68.065,8.175 68.11,8.76L68.11,10.76L65.43,10.76L65.43,4.4L68.05,4.4L68.05,6.4C68.13,5.8 68.372,5.233 68.75,4.76C69.072,4.416 69.529,4.23 70,4.25C70.351,4.241 70.698,4.331 71,4.51Z" style="fill:white;fill-rule:nonzero;"/>
            </g>
            <g transform="matrix(1.85552,0,0,2.54624,6145.29,-1.4916)">
                <path d="M80,2.92L80,10.77L77.32,10.77L77.32,9.34C77.125,9.845 76.775,10.276 76.32,10.57C75.8,10.866 75.208,11.011 74.61,10.99C74.042,11.007 73.481,10.853 73,10.55C72.565,10.243 72.22,9.825 72,9.34C71.74,8.796 71.604,8.202 71.6,7.6C71.588,6.977 71.725,6.359 72,5.8C72.251,5.288 72.643,4.857 73.13,4.56C73.625,4.253 74.198,4.097 74.78,4.11C75.908,4.018 76.964,4.703 77.34,5.77L77.34,2.92L80,2.92ZM76.92,8.55C77.187,8.286 77.335,7.925 77.33,7.55C77.35,7.174 77.204,6.808 76.93,6.55C76.634,6.287 76.246,6.15 75.85,6.17C75.453,6.151 75.063,6.291 74.77,6.56C74.499,6.82 74.352,7.185 74.37,7.56C74.359,7.934 74.504,8.297 74.77,8.56C75.387,9.085 76.303,9.085 76.92,8.56L76.92,8.55Z" style="fill:white;fill-rule:nonzero;"/>
            </g>
            <g transform="matrix(1.85552,0,0,2.54624,6145.29,-1.4916)">
                <path d="M39.44,5.64C38.553,6.02 37.547,6.02 36.66,5.64L36.66,10.77L39.44,10.77L39.44,5.64Z" style="fill:white;fill-rule:nonzero;"/>
            </g>
        </g>
    </g>
</svg>
