<?xml version="1.0" encoding="UTF-8" standalone="no"?>
<!DOCTYPE svg PUBLIC "-//W3C//DTD SVG 1.1//EN" "http://www.w3.org/Graphics/SVG/1.1/DTD/svg11.dtd">
<svg width="100%" height="100%" viewBox="0 0 555 113" version="1.1" xmlns="http://www.w3.org/2000/svg" xmlns:xlink="http://www.w3.org/1999/xlink" xml:space="preserve" xmlns:serif="http://www.serif.com/" style="fill-rule:evenodd;clip-rule:evenodd;stroke-linejoin:round;stroke-miterlimit:2;">
    <g transform="matrix(1,0,0,1,-2838,-1293.94)">
        <g id="Artboard3" transform="matrix(0.535762,0,0,0.353667,1317.19,883.726)">
            <rect x="2838.58" y="1159.89" width="1034.85" height="318.903" style="fill:none;"/>
            <g transform="matrix(1.25614,0,0,2.45521,102.443,85.3357)">
                <g transform="matrix(3.6277e-16,-4.59174,5.92448,2.81163e-16,567.321,11478.3)">
                    <path d="M2396.34,275.324L2391.76,288.321L2388.53,288.321L2383.95,275.324L2386.91,275.324L2390.21,286.032L2393.52,275.324L2396.34,275.324Z" style="fill:url(#_Linear1);fill-rule:nonzero;"/>
                </g>
                <g transform="matrix(1.54658,0,0,1.54291,-1556.26,374.601)">
                    <rect x="2447.34" y="107.869" width="44.606" height="7.423" style="fill:url(#_Linear2);"/>
                </g>
                <g transform="matrix(5.92448,0,0,4.59174,-11152.4,-738.32)">
                    <g transform="matrix(1,0,0,1,7.17529,-9.57211)">
                        <path d="M2273.06,286.389C2273.67,286.389 2274.24,286.282 2274.76,286.069C2275.28,285.856 2275.78,285.585 2276.26,285.257L2277.54,287.029C2276.97,287.513 2276.29,287.905 2275.48,288.204C2274.67,288.504 2273.84,288.653 2272.97,288.653C2271.65,288.653 2270.51,288.372 2269.56,287.81C2268.61,287.248 2267.89,286.461 2267.39,285.447C2266.9,284.434 2266.65,283.246 2266.65,281.884C2266.65,280.563 2266.9,279.384 2267.41,278.346C2267.91,277.308 2268.64,276.487 2269.59,275.884C2270.54,275.281 2271.69,274.98 2273.02,274.98C2274.76,274.98 2276.26,275.501 2277.53,276.543L2276.26,278.278C2275.75,277.925 2275.23,277.657 2274.7,277.472C2274.16,277.287 2273.62,277.195 2273.07,277.195C2272.04,277.195 2271.2,277.572 2270.55,278.327C2269.9,279.082 2269.58,280.268 2269.58,281.884C2269.58,283.509 2269.91,284.666 2270.56,285.355C2271.22,286.044 2272.05,286.389 2273.06,286.389Z" style="fill:url(#_Linear3);fill-rule:nonzero;"/>
                    </g>
                    <g transform="matrix(1,0,0,1,4.6364,-9.57211)">
                        <path d="M2286.77,274.98C2288.68,274.98 2290.13,275.599 2291.13,276.838C2292.13,278.077 2292.63,279.73 2292.63,281.798C2292.63,283.177 2292.4,284.379 2291.95,285.404C2291.49,286.43 2290.83,287.228 2289.95,287.798C2289.08,288.368 2288.01,288.653 2286.76,288.653C2284.86,288.653 2283.41,288.04 2282.4,286.813C2281.39,285.587 2280.89,283.923 2280.89,281.823C2280.89,280.477 2281.12,279.289 2281.57,278.26C2282.03,277.23 2282.69,276.426 2283.57,275.847C2284.45,275.269 2285.52,274.98 2286.77,274.98ZM2286.77,277.121C2285.78,277.121 2285.03,277.501 2284.53,278.26C2284.03,279.019 2283.78,280.206 2283.78,281.823C2283.78,283.439 2284.03,284.627 2284.53,285.386C2285.02,286.145 2285.77,286.524 2286.76,286.524C2287.75,286.524 2288.5,286.143 2288.99,285.38C2289.49,284.617 2289.74,283.423 2289.74,281.798C2289.74,280.198 2289.49,279.019 2289,278.26C2288.51,277.501 2287.76,277.121 2286.77,277.121Z" style="fill:url(#_Linear4);fill-rule:nonzero;"/>
                    </g>
                    <g transform="matrix(1,0,0,1,3.75294,-9.57211)">
                        <path d="M2305.3,274.98C2305.79,274.98 2306.23,275.086 2306.62,275.3C2307.02,275.513 2307.33,275.888 2307.55,276.426C2307.78,276.963 2307.89,277.708 2307.89,278.66L2307.89,288.321L2305.44,288.321L2305.44,279.041C2305.44,278.36 2305.4,277.872 2305.3,277.577C2305.21,277.281 2304.96,277.133 2304.57,277.133C2304.26,277.133 2303.94,277.23 2303.62,277.423C2303.29,277.616 2302.97,277.946 2302.65,278.413L2302.65,288.321L2300.42,288.321L2300.42,279.041C2300.42,278.36 2300.37,277.872 2300.28,277.577C2300.18,277.281 2299.94,277.133 2299.55,277.133C2299.23,277.133 2298.91,277.23 2298.59,277.423C2298.27,277.616 2297.95,277.946 2297.63,278.413L2297.63,288.321L2295.17,288.321L2295.17,275.324L2297.25,275.324L2297.43,276.727C2297.8,276.21 2298.2,275.79 2298.63,275.466C2299.06,275.142 2299.59,274.98 2300.21,274.98C2300.7,274.98 2301.15,275.101 2301.55,275.343C2301.96,275.585 2302.25,276.018 2302.44,276.641C2302.81,276.149 2303.22,275.749 2303.67,275.441C2304.12,275.133 2304.66,274.98 2305.3,274.98Z" style="fill:url(#_Linear5);fill-rule:nonzero;"/>
                    </g>
                    <g transform="matrix(1,0,0,1,2.70884,-9.57211)">
                        <path d="M2313.86,275.324L2313.86,284.407C2313.86,285.179 2314.01,285.728 2314.32,286.057C2314.63,286.385 2315.1,286.549 2315.72,286.549C2316.31,286.549 2316.88,286.372 2317.43,286.02C2317.98,285.667 2318.41,285.236 2318.74,284.727L2318.74,275.324L2321.49,275.324L2321.49,288.321L2319.12,288.321L2318.94,286.66C2318.46,287.308 2317.85,287.802 2317.11,288.143C2316.37,288.483 2315.62,288.653 2314.85,288.653C2313.58,288.653 2312.64,288.307 2312.03,287.613C2311.41,286.92 2311.1,285.966 2311.1,284.752L2311.1,275.324L2313.86,275.324Z" style="fill:url(#_Linear6);fill-rule:nonzero;"/>
                    </g>
                    <g transform="matrix(1,0,0,1,1.16711,-9.57211)">
                        <path d="M2325.87,288.321L2325.87,275.324L2328.25,275.324L2328.46,277.01C2329,276.354 2329.64,275.851 2330.38,275.503C2331.12,275.154 2331.88,274.98 2332.66,274.98C2333.87,274.98 2334.78,275.32 2335.38,276.001C2335.98,276.682 2336.29,277.63 2336.29,278.844L2336.29,288.321L2333.53,288.321L2333.53,280.21C2333.53,279.086 2333.42,278.284 2333.19,277.804C2332.97,277.324 2332.46,277.084 2331.67,277.084C2331.04,277.084 2330.46,277.279 2329.94,277.669C2329.42,278.059 2328.98,278.5 2328.63,278.992L2328.63,288.321L2325.87,288.321Z" style="fill:url(#_Linear7);fill-rule:nonzero;"/>
                    </g>
                    <g transform="matrix(1,0,0,1,-2.07886,-9.57211)">
                        <path d="M2345.82,268.961C2346.37,268.961 2346.8,269.125 2347.14,269.453C2347.47,269.782 2347.63,270.192 2347.63,270.684C2347.63,271.177 2347.47,271.591 2347.14,271.927C2346.8,272.264 2346.37,272.432 2345.82,272.432C2345.3,272.432 2344.87,272.264 2344.53,271.927C2344.2,271.591 2344.03,271.177 2344.03,270.684C2344.03,270.192 2344.2,269.782 2344.53,269.453C2344.87,269.125 2345.3,268.961 2345.82,268.961ZM2347.74,275.324L2347.74,286.303L2351.28,286.303L2351.28,288.321L2341.1,288.321L2341.1,286.303L2344.99,286.303L2344.99,277.343L2341.22,277.343L2341.22,275.324L2347.74,275.324Z" style="fill:url(#_Linear8);fill-rule:nonzero;"/>
                    </g>
                    <g transform="matrix(1,0,0,1,-5.22907,-9.57211)">
                        <path d="M2363.04,269.798L2365.8,270.106L2365.8,288.321L2363.38,288.321L2363.18,286.721C2362.74,287.337 2362.21,287.812 2361.59,288.149C2360.97,288.485 2360.29,288.653 2359.52,288.653C2358.41,288.653 2357.49,288.368 2356.77,287.798C2356.05,287.228 2355.52,286.43 2355.17,285.404C2354.81,284.379 2354.64,283.185 2354.64,281.823C2354.64,280.502 2354.84,279.326 2355.25,278.297C2355.66,277.267 2356.25,276.457 2357.01,275.866C2357.78,275.275 2358.69,274.98 2359.77,274.98C2361.11,274.98 2362.2,275.451 2363.04,276.395L2363.04,269.798ZM2360.49,277.097C2359.57,277.097 2358.85,277.48 2358.33,278.247C2357.81,279.015 2357.55,280.206 2357.55,281.823C2357.55,283.48 2357.79,284.68 2358.26,285.423C2358.73,286.165 2359.4,286.537 2360.25,286.537C2360.87,286.537 2361.41,286.356 2361.87,285.995C2362.33,285.634 2362.72,285.199 2363.04,284.69L2363.04,278.537C2362.72,278.077 2362.35,277.722 2361.92,277.472C2361.5,277.222 2361.02,277.097 2360.49,277.097Z" style="fill:url(#_Linear9);fill-rule:nonzero;"/>
                    </g>
                    <g transform="matrix(1,0,0,1,-7.07633,-9.57211)">
                        <path d="M2372.47,282.709C2372.55,284.046 2372.93,285.015 2373.6,285.613C2374.26,286.212 2375.07,286.512 2376.01,286.512C2376.65,286.512 2377.24,286.413 2377.78,286.217C2378.33,286.02 2378.88,285.741 2379.42,285.38L2380.62,287.029C2380.01,287.521 2379.3,287.915 2378.49,288.21C2377.68,288.506 2376.81,288.653 2375.88,288.653C2374.53,288.653 2373.38,288.366 2372.45,287.792C2371.52,287.218 2370.82,286.418 2370.34,285.392C2369.86,284.366 2369.62,283.181 2369.62,281.835C2369.62,280.53 2369.85,279.363 2370.33,278.333C2370.8,277.304 2371.49,276.487 2372.37,275.884C2373.26,275.281 2374.32,274.98 2375.55,274.98C2377.27,274.98 2378.64,275.558 2379.64,276.715C2380.64,277.872 2381.15,279.46 2381.15,281.478C2381.15,281.7 2381.14,281.919 2381.13,282.137C2381.12,282.354 2381.1,282.545 2381.09,282.709L2372.47,282.709ZM2375.57,277.023C2374.71,277.023 2374,277.33 2373.43,277.946C2372.86,278.561 2372.54,279.521 2372.46,280.826L2378.48,280.826C2378.45,279.603 2378.19,278.664 2377.7,278.007C2377.2,277.351 2376.49,277.023 2375.57,277.023Z" style="fill:url(#_Linear10);fill-rule:nonzero;"/>
                    </g>
                    <g transform="matrix(1,0,0,1,-9.88248,-9.57211)">
                        <path d="M2396.34,275.324L2391.76,288.321L2388.53,288.321L2383.95,275.324L2386.91,275.324L2390.21,286.032L2393.52,275.324L2396.34,275.324Z" style="fill:url(#_Linear11);fill-rule:nonzero;"/>
                    </g>
                </g>
            </g>
        </g>
    </g>
    <defs>
        <linearGradient id="_Linear1" x1="0" y1="0" x2="1" y2="0" gradientUnits="userSpaceOnUse" gradientTransform="matrix(12.7228,-0.278376,0.278376,12.7228,2383.16,277.553)"><stop offset="0" style="stop-color:rgb(185,135,27);stop-opacity:1"/><stop offset="0.38" style="stop-color:rgb(177,212,62);stop-opacity:1"/><stop offset="0.7" style="stop-color:rgb(184,222,102);stop-opacity:1"/><stop offset="1" style="stop-color:rgb(208,253,231);stop-opacity:1"/></linearGradient>
        <linearGradient id="_Linear2" x1="0" y1="0" x2="1" y2="0" gradientUnits="userSpaceOnUse" gradientTransform="matrix(44.6059,0,0,7.4229,2447.34,111.58)"><stop offset="0" style="stop-color:rgb(191,230,79);stop-opacity:1"/><stop offset="0.47" style="stop-color:rgb(63,197,41);stop-opacity:1"/><stop offset="1" style="stop-color:rgb(4,55,11);stop-opacity:1"/></linearGradient>
        <linearGradient id="_Linear3" x1="0" y1="0" x2="1" y2="0" gradientUnits="userSpaceOnUse" gradientTransform="matrix(90.9145,0,0,90.9145,2287.44,263.82)"><stop offset="0" style="stop-color:rgb(37,172,77);stop-opacity:1"/><stop offset="0.48" style="stop-color:rgb(62,212,99);stop-opacity:1"/><stop offset="0.75" style="stop-color:rgb(50,212,102);stop-opacity:1"/><stop offset="1" style="stop-color:rgb(9,213,112);stop-opacity:1"/></linearGradient>
        <linearGradient id="_Linear4" x1="0" y1="0" x2="1" y2="0" gradientUnits="userSpaceOnUse" gradientTransform="matrix(90.9145,0,0,90.9145,2289.98,263.82)"><stop offset="0" style="stop-color:rgb(37,172,77);stop-opacity:1"/><stop offset="0.48" style="stop-color:rgb(62,212,99);stop-opacity:1"/><stop offset="0.75" style="stop-color:rgb(50,212,102);stop-opacity:1"/><stop offset="1" style="stop-color:rgb(9,213,112);stop-opacity:1"/></linearGradient>
        <linearGradient id="_Linear5" x1="0" y1="0" x2="1" y2="0" gradientUnits="userSpaceOnUse" gradientTransform="matrix(90.9145,0,0,90.9145,2290.86,263.82)"><stop offset="0" style="stop-color:rgb(37,172,77);stop-opacity:1"/><stop offset="0.48" style="stop-color:rgb(62,212,99);stop-opacity:1"/><stop offset="0.75" style="stop-color:rgb(50,212,102);stop-opacity:1"/><stop offset="1" style="stop-color:rgb(9,213,112);stop-opacity:1"/></linearGradient>
        <linearGradient id="_Linear6" x1="0" y1="0" x2="1" y2="0" gradientUnits="userSpaceOnUse" gradientTransform="matrix(90.9145,0,0,90.9145,2291.91,263.82)"><stop offset="0" style="stop-color:rgb(37,172,77);stop-opacity:1"/><stop offset="0.48" style="stop-color:rgb(62,212,99);stop-opacity:1"/><stop offset="0.75" style="stop-color:rgb(50,212,102);stop-opacity:1"/><stop offset="1" style="stop-color:rgb(9,213,112);stop-opacity:1"/></linearGradient>
        <linearGradient id="_Linear7" x1="0" y1="0" x2="1" y2="0" gradientUnits="userSpaceOnUse" gradientTransform="matrix(90.9145,0,0,90.9145,2293.45,263.82)"><stop offset="0" style="stop-color:rgb(37,172,77);stop-opacity:1"/><stop offset="0.48" style="stop-color:rgb(62,212,99);stop-opacity:1"/><stop offset="0.75" style="stop-color:rgb(50,212,102);stop-opacity:1"/><stop offset="1" style="stop-color:rgb(9,213,112);stop-opacity:1"/></linearGradient>
        <linearGradient id="_Linear8" x1="0" y1="0" x2="1" y2="0" gradientUnits="userSpaceOnUse" gradientTransform="matrix(90.9145,0,0,90.9145,2296.7,263.82)"><stop offset="0" style="stop-color:rgb(37,172,77);stop-opacity:1"/><stop offset="0.48" style="stop-color:rgb(62,212,99);stop-opacity:1"/><stop offset="0.75" style="stop-color:rgb(50,212,102);stop-opacity:1"/><stop offset="1" style="stop-color:rgb(9,213,112);stop-opacity:1"/></linearGradient>
        <linearGradient id="_Linear9" x1="0" y1="0" x2="1" y2="0" gradientUnits="userSpaceOnUse" gradientTransform="matrix(90.9145,0,0,90.9145,2299.85,263.82)"><stop offset="0" style="stop-color:rgb(37,172,77);stop-opacity:1"/><stop offset="0.48" style="stop-color:rgb(62,212,99);stop-opacity:1"/><stop offset="0.75" style="stop-color:rgb(50,212,102);stop-opacity:1"/><stop offset="1" style="stop-color:rgb(9,213,112);stop-opacity:1"/></linearGradient>
        <linearGradient id="_Linear10" x1="0" y1="0" x2="1" y2="0" gradientUnits="userSpaceOnUse" gradientTransform="matrix(90.9145,0,0,90.9145,2301.69,263.82)"><stop offset="0" style="stop-color:rgb(37,172,77);stop-opacity:1"/><stop offset="0.48" style="stop-color:rgb(62,212,99);stop-opacity:1"/><stop offset="0.75" style="stop-color:rgb(50,212,102);stop-opacity:1"/><stop offset="1" style="stop-color:rgb(9,213,112);stop-opacity:1"/></linearGradient>
        <linearGradient id="_Linear11" x1="0" y1="0" x2="1" y2="0" gradientUnits="userSpaceOnUse" gradientTransform="matrix(90.9145,0,0,90.9145,2304.5,263.82)"><stop offset="0" style="stop-color:rgb(37,172,77);stop-opacity:1"/><stop offset="0.48" style="stop-color:rgb(62,212,99);stop-opacity:1"/><stop offset="0.75" style="stop-color:rgb(50,212,102);stop-opacity:1"/><stop offset="1" style="stop-color:rgb(9,213,112);stop-opacity:1"/></linearGradient>
    </defs>
</svg>
