<?xml version="1.0" encoding="UTF-8" standalone="no"?>
<!DOCTYPE svg PUBLIC "-//W3C//DTD SVG 1.1//EN" "http://www.w3.org/Graphics/SVG/1.1/DTD/svg11.dtd">
<svg width="100%" height="100%" viewBox="0 0 79 61" version="1.1" xmlns="http://www.w3.org/2000/svg" xmlns:xlink="http://www.w3.org/1999/xlink" xml:space="preserve" xmlns:serif="http://www.serif.com/" style="fill-rule:evenodd;clip-rule:evenodd;stroke-linecap:round;stroke-linejoin:round;stroke-miterlimit:1.5;">
    <g transform="matrix(1,0,0,1,-878,-552)">
        <g id="Artboard2" transform="matrix(1.42144,0,0,1.03163,-2729.16,0)">

            <g transform="matrix(2.74627,0,0,3.78398,2538.26,536.326)">
                <path d="M16.77,1.26C15.468,0.662 14.093,0.239 12.68,0C12.487,0.343 12.313,0.697 12.16,1.06C10.658,0.84 9.132,0.84 7.63,1.06C7.49,0.73 7.28,0.31 7.11,0C5.69,0.234 4.307,0.658 3,1.26C0.697,4.524 -0.341,8.517 0.08,12.49C1.593,13.602 3.284,14.451 5.08,15C5.488,14.457 5.846,13.878 6.15,13.27C5.566,13.053 5.004,12.782 4.47,12.46L4.88,12.14C8.043,13.635 11.717,13.635 14.88,12.14C15.02,12.25 15.15,12.36 15.3,12.46C14.758,12.78 14.19,13.051 13.6,13.27C13.914,13.879 14.282,14.458 14.7,15C16.496,14.451 18.187,13.602 19.7,12.49C20.117,8.516 19.075,4.523 16.77,1.26ZM6.61,10.26C5.615,10.204 4.827,9.37 4.827,8.373C4.827,8.335 4.828,8.298 4.83,8.26C4.827,8.219 4.826,8.178 4.826,8.138C4.826,7.142 5.616,6.311 6.61,6.26C7.603,6.305 8.395,7.134 8.395,8.128C8.395,8.172 8.393,8.216 8.39,8.26C8.43,9.283 7.632,10.161 6.61,10.22L6.61,10.26ZM13.18,10.26C12.145,10.196 11.343,9.296 11.4,8.26C11.398,8.222 11.397,8.185 11.397,8.147C11.397,7.15 12.185,6.316 13.18,6.26C14.173,6.305 14.965,7.134 14.965,8.128C14.965,8.172 14.963,8.216 14.96,8.26C15.005,9.284 14.204,10.166 13.18,10.22L13.18,10.26Z" style="fill:white;fill-rule:nonzero;"/>
            </g>
        </g>
    </g>
</svg>
